<svg width="50" height="48" viewBox="0 0 50 48" fill="none" xmlns="http://www.w3.org/2000/svg">
<path d="M47.5 23.5C47.5 27.6308 45.2429 31.5731 41.1906 34.5719C37.1387 37.5702 31.4227 39.5 25 39.5C18.5773 39.5 12.8613 37.5702 8.80944 34.5719C4.75711 31.5731 2.5 27.6308 2.5 23.5C2.5 19.3692 4.75711 15.4269 8.80944 12.4281C12.8613 9.42979 18.5773 7.5 25 7.5C31.4227 7.5 37.1387 9.42979 41.1906 12.4281C45.2429 15.4269 47.5 19.3692 47.5 23.5Z" stroke="#0071BC" stroke-width="5"/>
<circle cx="25" cy="23" r="7.5" fill="#0071BC" stroke="#0071BC" stroke-width="5"/>
<rect x="43.4263" y="1.41421" width="5" height="58" transform="rotate(45 43.4263 1.41421)" fill="#0071BC" stroke="white" stroke-width="2"/>
</svg>
